#!OML:ASF H:\Terrain\Patient Classification 1\Walking\steve\steve.ASF
:FULLY-SPECIFIED
:DEGREES
469
root 8.40255 16.7619 27.8108 7.0915 0.469998 -0.197985
lowerback 1.08194 1.36287 1.80879
upperback -2.55234 1.9258 1.93835
thorax -3.23722 0.941941 0.905176
lowerneck -10.8189 -1.43186 -3.67596
upperneck 21.3288 -1.28269 0.165632
head 8.44172 -0.876241 0.539932
rclavicle 3.42655e-014 1.90833e-014
rhumerus -32.7071 -23.4977 -74.9928
rradius 18.5599
rwrist 17.3017
rhand -19.1236 -36.2236
rfingers 7.12502
rthumb 7.18583 -66.0816
lclavicle 3.42655e-014 1.90833e-014
lhumerus -28.4537 -1.75934 91.0118
lradius 25.098
lwrist 10.5591
lhand -24.3993 -16.3093
lfingers 7.12502
lthumb 2.09176 13.6602
rfemur -27.5018 2.61366 25.6891
rtibia 37.797
rfoot -15.975 8.97903
rtoes 1.51198
lfemur -17.6115 7.64414 -20.2935
ltibia 67.2272
lfoot -2.61914 3.65095
ltoes -11.6378
470
root 8.38773 16.7832 27.9558 6.9676 0.395001 -0.565286
lowerback -0.531728 1.45518 1.96216
upperback -1.26042 1.95978 2.05635
thorax -0.999636 0.972384 1.00043
lowerneck -11.4776 -1.62896 -4.24697
upperneck 20.2213 -1.5752 0.897163
head 8.20596 -0.974421 0.845071
rclavicle 3.94091e-014 1.90833e-014
rhumerus -28.8786 -22.2413 -77.2699
rradius 18.949
rwrist 15.7436
rhand -18.8954 -36.5348
rfingers 7.12502
rthumb 7.40611 -66.3851
lclavicle 3.94091e-014 1.90833e-014
lhumerus -27.3511 -1.21628 90.7069
lradius 24.4681
lwrist 9.58505
lhand -23.9211 -15.9649
lfingers 7.12502
lthumb 2.55355 13.9996
rfemur -26.5968 3.06885 26.0958
rtibia 37.3106
rfoot -16.29 8.90274
rtoes 2.17635
lfemur -18.9114 7.97999 -19.7681
ltibia 67.6515
lfoot -3.85895 2.67444
ltoes -12.996
471
root 8.37336 16.8035 28.1022 6.83923 0.210205 -0.658576
lowerback -0.0611085 1.60106 1.84199
upperback -1.58119 2.17963 2.0466
thorax -1.59758 1.07997 1.03687
lowerneck -10.5726 -1.53762 -4.32496
upperneck 19.9542 -1.53251 1.1625
head 7.95308 -0.933825 0.955784
rclavicle -1.85864e-014 -2.62396e-014
rhumerus -28.0942 -20.4982 -78.3321
rradius 19.7732
rwrist 13.8266
rhand -18.9774 -36.387
rfingers 7.12502
rthumb 7.32699 -66.2401
lclavicle -1.85864e-014 -2.62396e-014
lhumerus -28.9866 -1.02889 90.5345
lradius 24.1528
lwrist 8.9758
lhand -23.6249 -15.9955
lfingers 7.12502
lthumb 2.83959 13.9654
rfemur -25.7022 3.46595 26.218
rtibia 36.926
rfoot -16.6352 9.03596
rtoes 2.58451
lfemur -20.1011 8.26284 -19.5804
ltibia 67.8289
lfoot -5.21542 1.78066
ltoes -11.9794
472
root 8.3765 16.8188 28.2501 6.81005 0.187686 -0.45955
lowerback -0.105256 1.79852 2.00864
upperback -1.63256 2.43917 1.6874
thorax -1.60416 1.2043 0.573372
lowerneck -10.2395 -1.52939 -3.9697
upperneck 19.8794 -1.61801 1.23928
head 7.86642 -0.940568 0.91538
rclavicle 2.32578e-014 2.06736e-014
rhumerus -27.0167 -19.3392 -79.4619
rradius 20.5679
rwrist 12.2016
rhand -18.7114 -36.2136
rfingers 7.12502
rthumb 7.58371 -66.0576
lclavicle 2.32578e-014 2.06736e-014
lhumerus -29.9829 -1.44993 90.3115
lradius 23.6712
lwrist 8.80388
lhand -23.608 -15.7564
lfingers 7.12502
lthumb 2.85598 14.2042
rfemur -24.9121 3.10758 26.048
rtibia 36.6505
rfoot -16.9612 9.68336
rtoes 2.61719
lfemur -21.2945 8.21809 -19.9054
ltibia 67.8173
lfoot -6.30528 1.24586
ltoes -11.5871
473
root 8.38014 16.8174 28.3905 6.74951 0.155811 -0.540536
lowerback 0.088793 1.84011 2.00904
upperback -1.79733 2.50612 1.70371
thorax -1.88286 1.23545 0.57892
lowerneck -10.2344 -1.47285 -3.84765
upperneck 20.3135 -1.56095 1.22717
head 8.00675 -0.908315 0.89738
rclavicle -1.23246e-014 -6.36111e-015
rhumerus -26.0505 -17.4556 -80.3954
rradius 21.4248
rwrist 10.8047
rhand -18.7212 -36.4528
rfingers 7.12502
rthumb 7.57426 -66.2972
lclavicle -1.23246e-014 -6.36111e-015
lhumerus -31.2766 -0.9646 90.0954
lradius 23.4194
lwrist 8.26735
lhand -23.6195 -14.8242
lfingers 7.12502
lthumb 2.84485 15.1366
rfemur -24.1655 3.0669 26.1652
rtibia 36.4344
rfoot -17.331 9.95836
rtoes 2.44926
lfemur -22.5068 8.35439 -19.946
ltibia 67.728
lfoot -6.9837 0.835053
ltoes -14.332
474
root 8.37565 16.8049 28.5221 6.69772 0.000735244 -0.981915
lowerback -0.53332 1.93948 2.31375
upperback -1.29841 2.60508 1.84547
thorax -1.01472 1.29003 0.586299
lowerneck -10.8333 -1.63641 -4.43306
upperneck 20.4012 -1.76811 1.78748
head 8.16159 -0.995022 1.15735
rclavicle 7.45443e-015 1.90833e-014
rhumerus -23.9271 -15.9304 -81.4806
rradius 22.1134
rwrist 9.72465
rhand -18.8856 -37.3676
rfingers 7.12502
rthumb 7.41554 -67.2176
lclavicle 7.45443e-015 1.90833e-014
lhumerus -31.4263 -0.0836915 89.7243
lradius 23.0699
lwrist 7.17294
lhand -23.3058 -14.4237
lfingers 7.12502
lthumb 3.14776 15.5328
rfemur -23.5236 3.57993 26.6779
rtibia 36.2938
rfoot -17.7397 9.9089
rtoes 2.9019
lfemur -23.8655 8.77226 -19.5483
ltibia 67.5814
lfoot -7.70805 0.60092
ltoes -18.0354
